<svg id="svg" version="1.1" xmlns="http://www.w3.org/2000/svg" xmlns:xlink="http://www.w3.org/1999/xlink" width="400" height="90.95043201455208" viewBox="0, 0, 400,90.95043201455208 undefined"><g id="svgg"><path id="path0" d="M58.389 3.514 C 58.338 3.567,57.560 3.633,56.661 3.661 C 55.761 3.690,54.739 3.815,54.388 3.940 C 54.038 4.065,53.398 4.171,52.967 4.176 C 52.535 4.180,52.034 4.263,51.853 4.360 C 51.553 4.520,50.925 4.681,48.295 5.268 C 47.794 5.380,47.243 5.550,47.069 5.646 C 46.896 5.742,46.517 5.821,46.228 5.821 C 45.938 5.821,45.600 5.944,45.475 6.094 C 45.351 6.244,45.057 6.367,44.822 6.367 C 44.587 6.367,43.947 6.571,43.400 6.821 C 42.854 7.071,42.289 7.276,42.146 7.276 C 41.929 7.276,40.023 8.208,35.744 10.406 C 35.343 10.612,34.975 10.831,34.925 10.893 C 34.875 10.954,34.466 11.205,34.015 11.449 C 33.326 11.822,29.890 14.270,29.150 14.914 C 29.025 15.023,28.922 15.063,28.922 15.004 C 28.922 14.945,28.546 15.248,28.087 15.679 C 27.627 16.110,27.209 16.462,27.158 16.462 C 27.007 16.462,22.044 21.512,21.705 22.010 C 21.535 22.260,21.104 22.765,20.748 23.132 C 20.209 23.688,18.417 26.143,17.735 27.260 C 17.635 27.424,17.164 28.154,16.689 28.882 C 16.214 29.611,15.825 30.279,15.825 30.368 C 15.825 30.457,15.760 30.556,15.680 30.590 C 15.601 30.623,15.373 30.978,15.175 31.378 C 14.977 31.778,14.556 32.597,14.241 33.197 C 13.470 34.664,12.369 37.073,12.369 37.294 C 12.369 37.392,12.297 37.472,12.209 37.472 C 12.122 37.472,11.963 37.779,11.857 38.154 C 11.473 39.507,11.028 40.657,10.837 40.788 C 10.729 40.862,10.694 40.923,10.758 40.925 C 10.869 40.928,10.176 43.332,9.840 44.111 C 9.754 44.311,9.544 45.110,9.373 45.885 C 9.177 46.780,8.992 47.252,8.869 47.176 C 8.759 47.108,8.728 47.141,8.797 47.254 C 8.865 47.363,8.750 48.173,8.543 49.056 C 8.193 50.545,7.729 53.271,7.262 56.584 C 7.141 57.437,7.097 60.241,7.145 63.951 C 7.220 69.809,7.255 70.435,7.513 70.694 C 7.583 70.763,7.641 70.991,7.642 71.199 C 7.650 72.269,9.162 75.587,10.427 77.308 C 12.112 79.602,14.760 82.090,16.000 82.545 C 16.154 82.601,16.567 82.821,16.917 83.034 C 18.571 84.038,22.895 85.557,24.714 85.773 C 25.051 85.813,26.054 85.971,26.943 86.124 C 29.577 86.579,31.434 86.512,31.573 85.958 C 31.714 85.397,31.592 85.203,30.844 84.810 C 29.510 84.108,24.557 79.103,24.557 78.457 C 24.557 78.325,24.488 78.217,24.405 78.217 C 24.096 78.217,22.224 75.184,20.980 72.669 C 19.071 68.808,17.814 63.249,18.739 62.754 C 19.102 62.560,19.140 62.570,19.038 62.835 C 18.974 63.002,18.991 63.096,19.075 63.044 C 19.159 62.992,19.483 63.304,19.795 63.739 C 23.622 69.068,28.086 72.107,36.471 75.092 C 39.798 76.277,41.637 76.765,44.839 77.314 C 50.204 78.233,51.315 78.399,52.109 78.399 C 52.702 78.399,52.916 78.462,52.825 78.609 C 52.743 78.741,52.775 78.770,52.909 78.687 C 53.027 78.614,54.493 78.643,56.166 78.752 C 61.162 79.076,63.917 79.096,67.849 78.835 C 69.900 78.699,71.783 78.630,72.033 78.681 C 72.329 78.742,72.404 78.719,72.249 78.615 C 72.099 78.514,72.608 78.413,73.627 78.341 C 74.515 78.278,75.645 78.145,76.139 78.047 C 76.632 77.948,77.608 77.774,78.308 77.660 C 81.409 77.153,82.432 76.943,84.311 76.433 C 89.619 74.990,93.497 73.456,96.723 71.524 C 97.447 71.090,98.123 70.786,98.224 70.849 C 98.325 70.912,98.408 70.835,98.408 70.679 C 98.408 70.523,98.479 70.396,98.566 70.396 C 98.652 70.396,99.000 70.151,99.339 69.853 C 99.677 69.554,100.013 69.309,100.084 69.307 C 100.591 69.296,104.940 64.460,105.673 63.093 C 106.071 62.351,106.660 62.265,106.736 62.938 C 106.765 63.188,106.613 64.334,106.400 65.484 C 106.187 66.635,106.003 67.719,105.991 67.894 C 105.980 68.070,105.917 68.213,105.852 68.213 C 105.787 68.213,105.630 68.704,105.503 69.304 C 105.375 69.905,105.200 70.396,105.114 70.396 C 105.027 70.396,104.957 70.539,104.957 70.714 C 104.957 71.077,103.017 75.000,102.432 75.822 C 102.220 76.120,102.046 76.413,102.046 76.474 C 102.046 76.614,100.947 78.190,99.942 79.491 C 98.924 80.809,95.041 84.584,94.703 84.584 C 94.558 84.584,94.227 84.835,93.969 85.143 C 92.890 86.425,94.251 86.693,98.499 86.033 C 99.300 85.909,100.098 85.801,100.273 85.793 C 100.448 85.786,100.591 85.732,100.591 85.675 C 100.591 85.618,100.774 85.557,100.997 85.540 C 101.558 85.498,103.153 85.136,103.593 84.950 C 103.793 84.866,104.593 84.574,105.372 84.300 C 106.150 84.027,106.830 83.734,106.883 83.648 C 106.936 83.562,107.099 83.492,107.246 83.492 C 107.799 83.492,111.013 81.345,112.209 80.177 C 113.588 78.829,113.927 78.418,114.903 76.908 C 115.271 76.338,115.652 75.921,115.750 75.981 C 115.847 76.041,115.872 76.002,115.805 75.893 C 115.737 75.784,115.881 75.260,116.125 74.728 C 117.853 70.951,118.586 63.815,117.882 57.633 C 117.308 52.603,116.538 48.508,115.525 45.111 C 115.331 44.461,115.040 43.479,114.877 42.929 C 114.714 42.378,114.492 41.749,114.383 41.531 C 114.274 41.313,114.172 40.985,114.156 40.803 C 114.140 40.622,113.987 40.156,113.816 39.769 C 113.646 39.381,113.506 38.987,113.506 38.893 C 113.506 38.799,113.309 38.298,113.068 37.779 C 112.827 37.260,112.452 36.426,112.234 35.925 C 111.517 34.283,110.258 31.866,109.236 30.171 C 108.683 29.254,108.231 28.434,108.231 28.349 C 108.231 28.264,108.149 28.195,108.049 28.195 C 107.949 28.195,107.867 28.107,107.867 28.000 C 107.867 27.893,107.765 27.696,107.640 27.562 C 107.515 27.428,106.962 26.644,106.412 25.820 C 105.862 24.995,104.900 23.722,104.275 22.991 C 103.649 22.260,103.138 21.607,103.138 21.539 C 103.138 21.248,97.858 16.280,96.330 15.133 C 93.360 12.904,91.807 11.791,91.458 11.640 C 91.033 11.457,90.872 11.361,89.589 10.533 C 89.187 10.274,88.511 9.910,88.085 9.725 C 87.660 9.540,87.312 9.323,87.312 9.242 C 87.312 9.161,87.225 9.095,87.119 9.095 C 87.013 9.095,86.419 8.860,85.800 8.572 C 84.084 7.774,83.532 7.542,81.855 6.911 C 81.005 6.591,80.023 6.214,79.673 6.075 C 78.998 5.805,77.408 5.373,73.670 4.446 C 73.120 4.309,72.282 4.149,71.810 4.089 C 71.337 4.030,70.905 3.909,70.851 3.821 C 70.797 3.733,70.611 3.656,70.438 3.649 C 67.780 3.547,58.457 3.443,58.389 3.514 M148.488 13.788 C 148.270 13.858,147.881 14.099,147.624 14.323 L 147.158 14.732 147.158 44.765 L 147.158 74.798 147.801 75.440 L 148.443 76.083 160.803 75.981 C 167.601 75.925,173.266 75.812,173.393 75.731 C 173.520 75.650,174.156 75.529,174.807 75.463 C 176.984 75.241,178.486 74.975,178.684 74.776 C 178.793 74.668,179.075 74.579,179.311 74.579 C 179.900 74.579,181.537 74.029,181.537 73.831 C 181.537 73.742,181.730 73.670,181.966 73.670 C 182.203 73.670,182.673 73.482,183.012 73.252 C 183.351 73.022,183.756 72.785,183.910 72.726 C 185.458 72.133,189.901 67.397,189.905 66.334 C 189.906 66.217,190.108 65.794,190.355 65.393 C 190.601 64.993,190.805 64.520,190.808 64.342 C 190.811 64.163,190.992 63.509,191.210 62.886 C 192.165 60.154,191.587 51.342,190.354 49.841 C 190.230 49.691,190.077 49.396,190.013 49.186 C 189.448 47.327,184.838 43.474,183.179 43.474 C 182.997 43.474,182.800 43.346,182.740 43.188 C 182.606 42.841,182.921 42.202,183.226 42.199 C 184.133 42.191,187.540 37.548,187.540 36.321 C 187.540 36.193,187.621 36.008,187.721 35.908 C 188.377 35.252,188.616 29.630,188.112 26.739 C 187.449 22.939,184.694 18.759,181.700 17.008 C 178.809 15.317,176.409 14.522,172.715 14.030 C 171.061 13.810,149.104 13.590,148.488 13.788 M170.623 25.102 C 170.623 25.202,170.824 25.284,171.069 25.284 C 171.715 25.284,172.397 25.621,173.543 26.504 C 177.960 29.909,176.635 36.929,171.323 38.263 C 168.908 38.869,160.331 39.180,159.573 38.689 C 159.327 38.530,159.224 25.284,159.466 25.042 C 159.670 24.838,170.623 24.898,170.623 25.102 M255.207 30.941 C 254.757 31.040,253.938 31.189,253.388 31.271 C 251.847 31.502,250.526 31.802,250.166 32.001 C 249.987 32.101,249.350 32.405,248.749 32.677 C 247.774 33.120,246.745 33.738,245.388 34.697 C 244.585 35.265,243.157 36.812,242.575 37.744 C 241.257 39.858,241.019 40.851,241.019 44.223 C 241.019 46.905,241.135 47.721,241.673 48.810 C 241.814 49.093,241.928 49.405,241.928 49.504 C 241.928 49.603,242.133 49.952,242.383 50.279 C 242.633 50.607,242.838 50.973,242.838 51.092 C 242.838 51.651,246.953 55.298,247.583 55.298 C 247.678 55.298,248.080 55.503,248.477 55.753 C 248.873 56.003,249.273 56.207,249.366 56.207 C 249.458 56.207,249.931 56.400,250.415 56.635 C 251.385 57.107,253.404 57.838,254.116 57.977 C 257.793 58.693,261.210 60.804,261.210 62.360 C 261.210 64.682,255.985 66.200,252.058 65.019 C 251.539 64.863,250.787 64.642,250.387 64.528 C 249.986 64.414,248.881 63.977,247.931 63.558 C 246.662 62.998,245.852 62.763,244.884 62.673 L 243.565 62.552 243.019 63.149 C 242.719 63.478,242.473 63.871,242.473 64.024 C 242.472 64.177,242.010 65.202,241.445 66.303 C 239.644 69.809,240.076 71.726,242.883 72.693 C 243.058 72.753,243.201 72.859,243.201 72.928 C 243.201 72.998,243.549 73.200,243.975 73.379 C 244.400 73.558,244.993 73.810,245.293 73.939 C 245.804 74.159,246.190 74.289,248.022 74.863 C 248.422 74.988,249.241 75.186,249.841 75.302 C 250.441 75.418,251.219 75.598,251.569 75.702 C 252.598 76.006,258.619 76.116,259.770 75.851 C 260.312 75.726,261.123 75.558,261.573 75.477 C 263.515 75.128,265.784 74.383,266.317 73.919 C 266.475 73.782,266.672 73.670,266.755 73.670 C 266.837 73.670,267.173 73.465,267.501 73.215 C 267.829 72.965,268.152 72.760,268.219 72.760 C 268.286 72.760,268.751 72.392,269.252 71.942 C 269.752 71.492,270.235 71.123,270.324 71.123 C 270.414 71.123,270.487 70.964,270.487 70.770 C 270.487 70.576,270.569 70.366,270.671 70.303 C 270.978 70.113,272.121 68.230,272.418 67.424 C 272.571 67.008,272.775 66.521,272.870 66.343 C 273.668 64.850,273.756 59.647,273.012 57.935 C 272.925 57.735,272.735 57.226,272.590 56.805 C 272.279 55.900,271.058 54.195,270.154 53.403 C 269.802 53.095,269.426 52.755,269.318 52.648 C 268.480 51.819,265.204 50.021,264.010 49.735 C 263.720 49.666,263.402 49.545,263.302 49.468 C 263.201 49.391,262.342 49.068,261.392 48.750 C 255.400 46.750,253.805 45.767,253.632 43.969 C 253.383 41.380,259.975 40.432,263.949 42.486 C 266.603 43.857,269.119 43.686,269.469 42.110 C 269.535 41.810,269.705 41.319,269.847 41.019 C 269.988 40.719,270.303 40.023,270.547 39.472 C 270.791 38.922,271.164 38.088,271.375 37.618 C 271.981 36.273,271.899 35.212,271.133 34.468 C 270.030 33.396,266.499 31.906,264.029 31.470 C 263.329 31.346,262.510 31.169,262.210 31.077 C 261.411 30.832,256.162 30.730,255.207 30.941 M213.734 31.100 C 213.583 31.200,213.174 31.283,212.824 31.284 C 211.957 31.288,209.588 31.786,208.886 32.112 C 208.570 32.259,208.209 32.378,208.082 32.378 C 207.846 32.378,205.349 33.471,205.184 33.647 C 205.134 33.700,204.725 33.988,204.275 34.287 C 203.208 34.995,201.041 36.707,200.458 37.304 C 198.586 39.219,196.635 41.725,196.635 42.213 C 196.635 42.309,196.559 42.530,196.466 42.704 C 196.373 42.877,196.250 43.142,196.191 43.292 C 196.133 43.442,195.928 43.811,195.737 44.111 C 195.545 44.411,195.382 44.824,195.375 45.030 C 195.368 45.235,195.270 45.494,195.158 45.606 C 194.953 45.811,194.862 46.159,194.314 48.840 C 193.879 50.965,193.884 56.368,194.322 58.208 C 194.501 58.959,194.716 59.886,194.801 60.269 C 194.885 60.653,195.046 61.058,195.158 61.170 C 195.270 61.282,195.362 61.481,195.362 61.613 C 195.362 62.341,197.845 66.797,198.986 68.117 C 199.514 68.728,201.629 70.835,202.292 71.411 C 204.130 73.008,207.877 74.735,210.732 75.302 C 211.332 75.421,212.192 75.602,212.642 75.704 C 214.250 76.069,217.884 76.106,219.645 75.775 C 221.827 75.365,223.608 74.921,223.820 74.732 C 223.915 74.648,224.145 74.579,224.331 74.579 C 224.653 74.579,227.256 73.387,227.998 72.899 C 230.272 71.405,232.238 69.798,233.174 68.668 C 234.692 66.833,235.379 65.770,236.639 63.302 C 236.716 63.151,236.873 62.846,236.989 62.622 C 237.104 62.398,237.199 62.083,237.199 61.922 C 237.199 61.761,237.318 61.412,237.463 61.147 C 239.809 56.863,238.344 44.489,235.037 40.655 C 234.864 40.455,234.489 39.924,234.202 39.475 C 233.658 38.623,230.846 35.793,230.168 35.416 C 229.953 35.296,229.339 34.899,228.804 34.533 C 226.230 32.776,223.317 31.656,220.100 31.188 C 218.625 30.974,214.020 30.910,213.734 31.100 M273.780 32.178 C 272.875 33.063,272.954 34.479,274.019 36.443 C 274.462 37.259,275.112 38.622,275.465 39.472 C 275.817 40.323,276.274 41.363,276.479 41.783 C 276.685 42.203,276.853 42.641,276.853 42.755 C 276.853 42.870,276.966 43.181,277.104 43.446 C 277.444 44.101,277.717 44.756,277.854 45.248 C 277.917 45.473,278.045 45.657,278.139 45.657 C 278.232 45.657,278.308 45.756,278.308 45.878 C 278.308 46.145,279.435 48.968,280.144 50.477 C 281.091 52.491,281.764 54.064,281.764 54.258 C 281.764 54.364,281.873 54.580,282.005 54.738 C 282.137 54.896,282.356 55.393,282.492 55.844 C 282.628 56.294,282.832 56.785,282.947 56.935 C 283.061 57.085,283.266 57.576,283.401 58.026 C 283.536 58.477,283.754 59.050,283.885 59.300 C 284.199 59.899,285.948 63.979,285.948 64.112 C 285.948 64.169,286.101 64.562,286.288 64.986 C 286.749 66.035,287.484 67.924,287.869 69.054 L 288.186 69.986 287.411 71.600 C 286.984 72.488,286.528 73.420,286.397 73.670 C 286.266 73.920,285.938 74.575,285.668 75.125 C 283.539 79.472,281.080 84.249,280.860 84.470 C 280.155 85.175,280.889 87.858,281.786 87.858 C 281.936 87.858,282.544 88.014,283.139 88.204 C 283.734 88.394,284.834 88.729,285.584 88.949 C 286.335 89.168,287.112 89.415,287.312 89.497 C 289.760 90.505,292.032 90.050,292.427 88.475 C 292.487 88.236,292.609 88.040,292.698 88.040 C 292.787 88.040,292.860 87.908,292.860 87.746 C 292.860 87.585,293.060 87.073,293.304 86.609 C 293.549 86.146,293.999 85.214,294.305 84.538 C 294.611 83.863,295.112 82.758,295.418 82.083 C 296.191 80.377,296.352 80.028,297.397 77.805 C 297.903 76.728,298.317 75.817,298.317 75.780 C 298.317 75.742,298.686 74.929,299.136 73.972 C 299.586 73.015,299.955 72.168,299.955 72.090 C 299.955 72.011,300.152 71.537,300.393 71.035 C 300.635 70.533,300.994 69.754,301.192 69.304 C 301.389 68.854,301.756 68.035,302.007 67.485 C 302.258 66.935,302.685 65.953,302.956 65.302 C 303.228 64.652,303.737 63.506,304.089 62.756 C 304.440 62.005,304.832 61.105,304.959 60.755 C 305.086 60.405,305.445 59.573,305.756 58.906 C 306.067 58.240,306.321 57.641,306.321 57.576 C 306.321 57.511,306.536 56.992,306.799 56.423 C 307.720 54.428,308.098 53.564,308.330 52.933 C 308.459 52.583,308.673 52.167,308.807 52.009 C 308.940 51.851,309.050 51.638,309.050 51.535 C 309.050 51.432,309.336 50.798,309.686 50.126 C 310.036 49.455,310.323 48.826,310.323 48.729 C 310.323 48.570,310.805 47.436,312.093 44.566 C 312.340 44.015,312.646 43.320,312.771 43.020 C 312.897 42.719,313.104 42.228,313.230 41.928 C 313.356 41.628,313.558 41.178,313.679 40.928 C 313.799 40.678,314.008 40.105,314.143 39.654 C 314.279 39.204,314.484 38.713,314.600 38.563 C 314.716 38.413,314.920 38.004,315.053 37.653 C 315.187 37.303,315.520 36.565,315.793 36.012 C 316.569 34.441,316.664 33.138,316.053 32.412 L 315.566 31.833 310.235 31.833 L 304.904 31.833 304.384 32.428 C 303.858 33.032,303.543 33.678,302.502 36.289 C 302.183 37.090,301.847 37.887,301.757 38.060 C 301.666 38.234,301.592 38.525,301.592 38.706 C 301.592 38.887,301.527 39.114,301.447 39.209 C 301.368 39.304,301.148 39.873,300.960 40.473 C 300.772 41.073,300.550 41.642,300.468 41.737 C 300.386 41.832,300.318 42.037,300.317 42.192 C 300.317 42.347,300.194 42.708,300.044 42.995 C 299.895 43.281,299.773 43.630,299.773 43.770 C 299.773 43.910,299.689 44.167,299.588 44.341 C 299.349 44.748,298.655 46.679,297.839 49.204 C 297.483 50.305,297.077 51.422,296.936 51.688 C 296.796 51.953,296.680 52.265,296.680 52.380 C 296.680 52.844,295.330 55.662,295.107 55.662 C 294.866 55.662,294.294 54.680,294.046 53.843 C 293.972 53.593,293.805 53.142,293.675 52.842 C 293.169 51.674,292.497 49.860,292.497 49.661 C 292.497 49.547,292.397 49.274,292.275 49.056 C 292.050 48.651,291.500 47.166,290.849 45.202 C 290.650 44.602,290.325 43.764,290.128 43.340 C 289.930 42.916,289.768 42.489,289.768 42.391 C 289.768 42.293,289.653 41.945,289.512 41.616 C 289.371 41.287,288.998 40.323,288.683 39.472 C 287.930 37.441,286.749 34.518,286.219 33.375 C 285.429 31.670,285.737 31.750,279.673 31.684 L 274.344 31.626 273.780 32.178 M319.782 31.805 C 318.341 31.976,317.871 32.362,317.920 33.333 C 317.942 33.759,317.986 40.409,318.017 48.113 C 318.075 62.070,318.077 62.124,318.485 63.392 C 318.711 64.093,318.938 64.870,318.989 65.121 C 319.085 65.581,319.177 65.805,320.072 67.758 C 320.840 69.432,321.379 70.186,322.868 71.669 C 324.200 72.995,324.455 73.155,327.841 74.799 C 328.255 75.000,331.110 75.625,332.788 75.881 C 334.148 76.089,337.643 75.972,338.588 75.688 C 338.899 75.594,339.604 75.419,340.155 75.299 C 341.109 75.092,343.413 74.145,343.609 73.879 C 343.660 73.810,343.909 73.663,344.162 73.552 C 344.416 73.441,345.260 72.844,346.038 72.225 C 347.940 70.714,348.023 70.749,348.251 73.153 C 348.533 76.108,347.524 75.839,358.360 75.847 C 363.855 75.850,367.800 75.778,368.455 75.662 C 371.735 75.083,373.396 74.610,374.208 74.025 C 374.479 73.830,374.757 73.670,374.825 73.670 C 374.893 73.670,375.634 73.213,376.472 72.656 C 378.582 71.252,378.947 71.325,379.251 73.213 C 379.417 74.243,379.590 74.696,379.994 75.159 L 380.520 75.762 385.618 75.815 C 390.649 75.868,390.723 75.863,391.265 75.463 L 391.814 75.057 391.809 53.763 L 391.803 32.469 391.309 32.106 C 390.841 31.762,390.528 31.742,385.589 31.742 L 380.364 31.742 379.881 32.225 L 379.397 32.708 379.431 36.836 C 379.509 46.179,379.081 57.471,378.612 58.481 C 377.540 60.787,375.445 62.693,372.533 64.009 C 371.625 64.420,371.296 64.463,368.986 64.472 L 366.439 64.482 365.147 63.640 C 363.587 62.623,362.360 61.107,361.767 59.465 L 361.346 58.299 361.255 45.446 L 361.164 32.593 360.623 32.167 C 360.083 31.743,360.068 31.742,354.670 31.742 L 349.258 31.742 348.754 32.246 L 348.249 32.750 348.198 36.702 C 347.945 56.057,347.889 57.985,347.564 58.343 C 347.391 58.535,347.249 58.757,347.249 58.836 C 347.249 59.047,345.617 61.301,345.464 61.301 C 345.393 61.301,345.008 61.617,344.609 62.004 C 342.735 63.819,338.654 65.047,336.096 64.564 C 334.043 64.177,331.697 62.082,331.044 60.054 C 330.926 59.689,330.753 59.293,330.659 59.174 C 330.555 59.044,330.474 53.708,330.455 45.779 L 330.423 32.601 329.968 32.223 C 329.567 31.889,329.267 31.844,327.422 31.838 C 326.271 31.834,324.307 31.799,323.056 31.759 C 321.805 31.719,320.332 31.740,319.782 31.805 M85.551 32.401 C 87.378 33.121,88.788 34.520,89.837 36.653 C 92.032 41.114,90.126 47.413,85.996 49.352 C 78.622 52.815,71.812 44.659,75.346 36.598 C 75.969 35.179,77.753 33.106,78.352 33.106 C 78.478 33.106,78.581 33.037,78.581 32.952 C 78.581 32.757,79.718 32.252,80.673 32.022 C 81.766 31.758,84.450 31.967,85.551 32.401 M45.338 32.362 C 48.975 33.614,51.524 38.332,50.752 42.383 C 50.463 43.900,49.852 45.839,49.663 45.839 C 49.582 45.839,49.470 46.023,49.413 46.248 C 49.312 46.647,47.610 48.568,47.358 48.568 C 47.289 48.568,47.098 48.689,46.933 48.838 C 45.854 49.815,42.456 50.347,40.371 49.865 C 32.917 48.141,32.415 34.993,39.703 32.370 C 41.041 31.889,43.949 31.885,45.338 32.362 M218.751 42.955 C 219.343 43.070,219.956 43.274,220.114 43.410 C 220.272 43.545,220.461 43.656,220.534 43.656 C 221.454 43.656,225.375 47.692,225.375 48.640 C 225.375 48.788,225.457 48.960,225.557 49.022 C 225.657 49.084,225.739 49.273,225.740 49.442 C 225.741 49.611,225.872 49.995,226.032 50.296 C 226.406 50.999,226.498 56.430,226.142 56.787 C 226.020 56.908,225.921 57.119,225.921 57.254 C 225.921 57.390,225.757 57.861,225.556 58.302 C 223.004 63.903,215.940 66.188,211.154 62.958 C 210.202 62.315,208.095 60.257,208.095 59.970 C 208.095 59.864,207.941 59.609,207.754 59.402 C 206.763 58.310,206.424 56.727,206.488 53.501 L 206.548 50.477 207.348 48.840 C 208.556 46.366,211.001 43.656,212.024 43.656 C 212.098 43.656,212.288 43.541,212.446 43.401 C 213.120 42.801,216.662 42.551,218.751 42.955 M170.847 49.214 C 173.453 49.705,173.962 49.845,174.987 50.349 C 176.234 50.964,178.056 52.760,178.531 53.843 C 178.728 54.293,178.972 54.719,179.073 54.789 C 179.548 55.119,179.293 59.184,178.732 60.214 C 177.801 61.925,175.673 63.542,173.806 63.958 C 173.506 64.025,173.179 64.141,173.079 64.217 C 172.151 64.917,160.340 64.868,159.634 64.162 C 159.250 63.778,159.194 50.239,159.573 49.424 L 159.800 48.934 164.571 48.933 C 168.129 48.932,169.725 49.003,170.847 49.214 M64.476 53.579 C 64.730 53.874,64.938 54.181,64.938 54.262 C 64.940 55.051,66.136 56.596,66.902 56.796 C 67.873 57.050,69.664 56.139,69.669 55.389 C 69.686 52.825,72.788 51.973,73.946 54.213 C 74.694 55.659,73.184 59.845,71.914 59.845 C 71.767 59.845,71.697 59.925,71.757 60.022 C 71.817 60.119,71.658 60.251,71.404 60.315 C 71.149 60.378,70.941 60.487,70.941 60.555 C 70.941 60.624,70.471 60.840,69.895 61.036 C 67.814 61.744,65.117 61.384,63.630 60.199 C 62.849 59.576,62.047 59.504,61.585 60.014 C 61.281 60.351,60.204 60.942,59.777 61.007 C 59.664 61.024,59.455 61.111,59.311 61.201 C 58.800 61.520,56.239 61.550,55.517 61.247 C 55.146 61.091,54.623 60.916,54.355 60.859 C 52.323 60.423,50.193 55.984,51.136 54.149 C 52.096 52.282,55.298 52.691,55.298 54.680 C 55.298 55.020,55.360 55.298,55.435 55.298 C 55.511 55.298,55.685 55.552,55.823 55.863 C 56.623 57.670,59.388 56.971,60.002 54.806 C 60.283 53.814,61.001 52.971,61.625 52.899 C 62.861 52.757,64.004 53.029,64.476 53.579 " stroke="none" fill="#ffffff" fill-rule="evenodd"/></g></svg>